HIERARCHY
ROOT Hips
{
	OFFSET 0.00000 0.00000 0.00000
	CHANNELS 6 Xposition Yposition Zposition Zrotation Yrotation Xrotation 
	JOINT LHipJoint
	{
		OFFSET 0 0 0
		CHANNELS 3 Zrotation Yrotation Xrotation
		JOINT LeftUpLeg
		{
			OFFSET 1.65412 -1.54119 0.76744
			CHANNELS 3 Zrotation Yrotation Xrotation
			JOINT LeftLeg
			{
				OFFSET 2.19550 -6.03209 0.00000
				CHANNELS 3 Zrotation Yrotation Xrotation
				JOINT LeftFoot
				{
					OFFSET 2.38814 -6.56138 0.00000
					CHANNELS 3 Zrotation Yrotation Xrotation
					JOINT LeftToeBase
					{
						OFFSET 0.17337 -0.47632 1.75875
						CHANNELS 3 Zrotation Yrotation Xrotation
						End Site
						{
							OFFSET 0.00000 -0.00000 0.92050
						}
					}
				}
			}
		}
	}
	JOINT RHipJoint
	{
		OFFSET 0 0 0
		CHANNELS 3 Zrotation Yrotation Xrotation
		JOINT RightUpLeg
		{
			OFFSET -1.40291 -1.54119 0.76744
			CHANNELS 3 Zrotation Yrotation Xrotation
			JOINT RightLeg
			{
				OFFSET -2.22156 -6.10370 0.00000
				CHANNELS 3 Zrotation Yrotation Xrotation
				JOINT RightFoot
				{
					OFFSET -2.46840 -6.78188 0.00000
					CHANNELS 3 Zrotation Yrotation Xrotation
					JOINT RightToeBase
					{
						OFFSET -0.15659 -0.43024 1.84117
						CHANNELS 3 Zrotation Yrotation Xrotation
						End Site
						{
							OFFSET -0.00000 -0.00000 0.95587
						}
					}
				}
			}
		}
	}
	JOINT LowerBack
	{
		OFFSET 0 0 0
		CHANNELS 3 Zrotation Yrotation Xrotation
		JOINT Spine
		{
			OFFSET -0.01936 1.82120 -0.32061
			CHANNELS 3 Zrotation Yrotation Xrotation
			JOINT Spine1
			{
				OFFSET -0.00532 1.85767 -0.00071
				CHANNELS 3 Zrotation Yrotation Xrotation
				JOINT Neck
				{
					OFFSET 0 0 0
					CHANNELS 3 Zrotation Yrotation Xrotation
					JOINT Neck1
					{
						OFFSET -0.10687 1.58194 0.10810
						CHANNELS 3 Zrotation Yrotation Xrotation
						JOINT Head
						{
							OFFSET 0.15346 1.57382 -0.25612
							CHANNELS 3 Zrotation Yrotation Xrotation
							End Site
							{
								OFFSET 0.05334 1.61251 -0.10513
							}
						}
					}
				}
				JOINT LeftShoulder
				{
					OFFSET 0 0 0
					CHANNELS 3 Zrotation Yrotation Xrotation
					JOINT LeftArm
					{
						OFFSET 2.85758 0.89498 -0.01485
						CHANNELS 3 Zrotation Yrotation Xrotation
						JOINT LeftForeArm
						{
							OFFSET 4.79185 -0.00000 -0.00000
							CHANNELS 3 Zrotation Yrotation Xrotation
							JOINT LeftHand
							{
								OFFSET 2.65553 -0.00000 0.00000
								CHANNELS 3 Zrotation Yrotation Xrotation
								JOINT LeftFingerBase
								{
									OFFSET 0 0 0
									CHANNELS 3 Zrotation Yrotation Xrotation
									JOINT LeftHandIndex1
									{
										OFFSET 0.74390 -0.00000 0.00000
										CHANNELS 3 Zrotation Yrotation Xrotation
										End Site
										{
											OFFSET 0.59975 -0.00000 0.00000
										}
									}
								}
								JOINT LThumb
								{
									OFFSET 0 0 0
									CHANNELS 3 Zrotation Yrotation Xrotation
									End Site
									{
										OFFSET 0.60891 -0.00000 0.60891
									}
								}
							}
						}
					}
				}
				JOINT RightShoulder
				{
					OFFSET 0 0 0
					CHANNELS 3 Zrotation Yrotation Xrotation
					JOINT RightArm
					{
						OFFSET -2.93906 0.88031 0.02490
						CHANNELS 3 Zrotation Yrotation Xrotation
						JOINT RightForeArm
						{
							OFFSET -4.77254 -0.00000 -0.00000
							CHANNELS 3 Zrotation Yrotation Xrotation
							JOINT RightHand
							{
								OFFSET -2.75995 -0.00000 -0.00000
								CHANNELS 3 Zrotation Yrotation Xrotation
								JOINT RightFingerBase
								{
									OFFSET 0 0 0
									CHANNELS 3 Zrotation Yrotation Xrotation
									JOINT RightHandIndex1
									{
										OFFSET -0.70162 -0.00000 0.00000
										CHANNELS 3 Zrotation Yrotation Xrotation
										End Site
										{
											OFFSET -0.56566 -0.00000 0.00000
										}
									}
								}
								JOINT RThumb
								{
									OFFSET 0 0 0
									CHANNELS 3 Zrotation Yrotation Xrotation
									End Site
									{
										OFFSET -0.57430 -0.00000 0.57430
									}
								}
							}
						}
					}
				}
			}
		}
	}
}
MOTION
Frames: 9
Frame Time: .0083333
0.1238 15.5627 -2.6739 -2.3030 2.5874 19.2106 0.0000 0.0000 0.0000 -3.6257 -19.6883 -43.8698 4.0588 12.2382 36.5799 0.1382 0.9781 -7.4509 0.5860 -4.9016 -13.6280 0.0000 0.0000 0.0000 9.7746 19.8163 -43.1527 -4.5449 -12.8522 38.8176 -0.1890 -6.0892 -12.6271 -0.3499 3.8008 -10.5170 -1.8139 0.9803 36.0054 -1.4749 0.5054 12.1358 -0.7751 0.2561 -4.5294 -16.3213 -7.3645 -8.7658 19.2771 -9.0255 0.4924 8.1227 -4.0988 3.3137 0.0000 -0.0000 0.0000 58.4711 -75.0290 -84.3677 46.2876 -51.3839 -23.2405 -0.0000 -0.0000 4.0473 6.3508 20.8217 2.2656 -7.1250 0.0000 -0.0000 -21.8029 49.6184 -2.5929 0.0000 -0.0000 0.0000 24.6210 32.7192 63.7723 -96.9276 59.8179 -65.9958 0.0000 -0.0000 -23.5330 30.9331 9.0205 5.3677 7.1250 -0.0000 -0.0000 37.2144 -18.5877 30.7882
0.1268 15.5605 -2.6695 -2.3489 2.7407 19.2035 0.0000 0.0000 0.0000 -3.4864 -19.9598 -43.8858 4.0831 12.2702 36.6947 0.1413 1.0613 -7.5716 0.5704 -4.8368 -13.4438 0.0000 0.0000 0.0000 9.8813 19.5843 -43.1653 -4.5480 -12.8559 38.8315 -0.1981 -5.9462 -12.6375 -0.3456 3.7774 -10.4512 -2.0881 0.9542 36.0149 -1.2646 0.4053 12.2413 -0.3762 0.1941 -4.4174 -16.5223 -7.2903 -8.8211 19.1418 -8.8766 0.4106 8.1261 -4.0275 3.2723 0.0000 0.0000 0.0000 58.1006 -75.3020 -83.9195 43.2911 -49.9033 -20.9232 -0.0000 -0.0000 4.3224 6.5332 21.7705 2.4322 -7.1250 0.0000 -0.0000 -22.0990 50.5255 -3.1425 0.0000 0.0000 0.0000 23.9704 31.5816 63.5418 -103.5775 59.2918 -71.7305 0.0000 -0.0000 -23.6717 31.6986 9.0489 5.5478 7.1250 -0.0000 -0.0000 37.5238 -18.3674 31.5019
0.1334 15.5566 -2.6672 -2.3667 2.8200 19.2413 0.0000 0.0000 0.0000 -3.4028 -20.1394 -43.9842 4.1090 12.3040 36.8160 0.1440 1.1273 -7.6730 0.5644 -4.8118 -13.3725 0.0000 0.0000 0.0000 9.9144 19.3938 -43.2716 -4.5552 -12.8646 38.8638 -0.2075 -5.7632 -12.6165 -0.3560 3.8332 -10.6077 -2.3097 0.9211 36.0117 -1.1114 0.3072 12.2831 -0.0658 0.1360 -4.3695 -16.6724 -7.1943 -8.7978 19.0327 -8.7238 0.4015 8.1315 -3.9559 3.2374 -0.0000 -0.0000 0.0000 55.9021 -75.4364 -80.9072 40.6920 -48.4746 -18.9557 -0.0000 -0.0000 4.6014 6.0208 22.4042 2.3020 -7.1250 0.0000 -0.0000 -22.9017 51.0288 -3.5611 -0.0000 -0.0000 0.0000 23.2788 30.7479 62.8733 -109.9085 58.4481 -77.1515 0.0000 -0.0000 -23.7823 32.5634 8.9903 5.6990 7.1250 -0.0000 -0.0000 37.8867 -18.1857 32.2695
0.1443 15.5491 -2.6691 -2.4238 2.9317 19.4128 0.0000 0.0000 0.0000 -3.2295 -20.3007 -44.2930 4.1344 12.3371 36.9352 0.1428 1.1555 -7.6592 0.5820 -4.8850 -13.5807 0.0000 0.0000 0.0000 9.9539 19.1646 -43.5747 -4.5648 -12.8763 38.9070 -0.2099 -5.6178 -12.5168 -0.3659 3.8859 -10.7558 -2.0678 0.6624 36.0386 -1.2656 0.0560 12.1342 -0.2682 0.0297 -4.5411 -16.5459 -7.0462 -8.7242 19.0268 -8.5666 0.6049 8.1251 -3.8775 3.2496 0.0000 0.0000 0.0000 51.5410 -75.4546 -74.7739 38.4558 -47.1279 -17.2989 -0.0000 -0.0000 4.6544 4.7022 22.9284 1.8354 -7.1250 0.0000 -0.0000 -24.4117 51.2954 -3.9868 0.0000 0.0000 0.0000 22.8534 30.1717 62.0550 -115.8887 57.3095 -82.2177 0.0000 -0.0000 -23.7888 32.7505 9.1371 5.8322 7.1250 -0.0000 -0.0000 37.9191 -17.9993 32.5457
0.1485 15.5467 -2.6683 -2.5539 2.9327 19.3733 0.0000 0.0000 0.0000 -3.0898 -20.3028 -44.3235 4.1607 12.3712 37.0581 0.1478 1.1422 -7.7743 0.6068 -4.9863 -13.8694 0.0000 0.0000 0.0000 10.1293 19.0858 -43.5844 -4.5792 -12.8936 38.9715 -0.2173 -5.4978 -12.5263 -0.3617 3.8635 -10.6931 -1.9132 0.4649 36.2911 -1.3744 -0.1533 12.0077 -0.3920 -0.0613 -4.7671 -16.4626 -6.8828 -8.7105 19.0401 -8.3818 0.8544 8.1336 -3.7814 3.2833 -0.0000 0.0000 0.0000 46.1995 -75.2830 -67.1248 36.3511 -45.7531 -15.7735 -0.0000 -0.0000 4.2804 3.6143 22.9643 1.4117 -7.1250 0.0000 -0.0000 -25.4406 51.1522 -4.0806 -0.0000 0.0000 0.0000 22.0777 30.0310 60.6339 -121.4856 55.9009 -86.8920 0.0000 -0.0000 -23.9792 32.8802 9.3121 5.9715 7.1250 -0.0000 -0.0000 37.9211 -17.8031 32.7866
0.1502 15.5464 -2.6664 -2.5189 2.8282 19.3038 0.0000 0.0000 0.0000 -3.1818 -20.2319 -44.2709 4.1852 12.4029 37.1724 0.1531 1.0854 -7.8710 0.6157 -5.0220 -13.9713 0.0000 0.0000 0.0000 10.0997 19.0900 -43.5539 -4.5999 -12.9185 39.0641 -0.2251 -5.4265 -12.5891 -0.3571 3.8393 -10.6251 -2.1050 0.4132 36.4266 -1.3534 -0.2834 11.9862 -0.2249 -0.1280 -4.8338 -16.4537 -6.7730 -8.7717 18.9719 -8.2448 1.0832 8.1209 -3.7084 3.3305 -0.0000 -0.0000 0.0000 40.2437 -74.9149 -58.3523 34.6905 -44.5898 -14.5956 -0.0000 -0.0000 3.3837 2.7696 23.1086 1.0877 -7.1250 0.0000 -0.0000 -26.3016 51.1457 -4.2313 -0.0000 -0.0000 0.0000 20.6792 30.2626 58.3578 -126.6152 54.2726 -91.0998 0.0000 -0.0000 -24.6744 32.8325 9.3544 5.9874 7.1250 -0.0000 -0.0000 37.8909 -17.7783 32.7692
0.1646 15.5366 -2.6713 -2.3513 2.8634 19.5029 0.0000 0.0000 0.0000 -3.2739 -20.4165 -44.5731 4.2028 12.4255 37.2544 0.1508 1.1360 -7.8414 0.6172 -5.0280 -13.9885 0.0000 0.0000 0.0000 9.8240 18.8989 -43.9373 -4.6198 -12.9424 39.1531 -0.2293 -5.3089 -12.5518 -0.3571 3.8390 -10.6242 -2.0400 0.2239 36.1966 -1.4116 -0.4892 11.9589 -0.2478 -0.2221 -4.7854 -16.3150 -6.7097 -8.8070 18.8990 -8.1904 1.3195 8.0769 -3.6769 3.3852 0.0000 -0.0000 0.0000 33.4291 -74.3973 -48.3136 33.7155 -43.8728 -13.9155 -0.0000 -0.0000 1.9435 1.6302 23.5455 0.6514 -7.1250 0.0000 -0.0000 -27.6031 51.3497 -4.6147 0.0000 -0.0000 0.0000 19.2435 30.7096 55.3884 -130.9772 52.5937 -94.6041 0.0000 -0.0000 -25.6582 32.3390 9.3289 5.8598 7.1250 -0.0000 -0.0000 37.7041 -17.9409 32.2836
0.1800 15.5270 -2.6765 -2.2605 2.8943 19.6585 0.0000 0.0000 0.0000 -3.3134 -20.5516 -44.8176 4.2124 12.4378 37.2989 0.1488 1.1870 -7.8206 0.5849 -4.8970 -13.6149 0.0000 0.0000 0.0000 9.6436 18.7326 -44.2308 -4.6271 -12.9511 39.1857 -0.2299 -5.1753 -12.4395 -0.3646 3.8785 -10.7352 -1.8645 0.0441 35.9893 -1.4452 -0.6471 11.9337 -0.3199 -0.2922 -4.7445 -16.2989 -6.6881 -8.7558 19.0025 -8.1961 1.4949 8.1095 -3.6766 3.4339 0.0000 0.0000 0.0000 27.0205 -73.6285 -38.3503 32.8812 -43.2386 -13.3406 -0.0000 0.0000 -0.0729 0.3438 24.0824 0.1403 -7.1250 0.0000 -0.0000 -29.1062 51.6109 -5.1012 0.0000 0.0000 0.0000 17.7884 31.4463 51.7628 -134.5730 50.9759 -97.4300 0.0000 -0.0000 -26.8960 32.1162 9.2968 5.7902 7.1250 -0.0000 -0.0000 37.6240 -18.0311 32.0533
0.1828 15.5317 -2.6725 -2.2554 2.5033 19.3872 0.0000 0.0000 0.0000 -3.5760 -20.2133 -44.4288 4.2179 12.4448 37.3243 0.1555 1.1226 -7.9478 0.5578 -4.7841 -13.2939 0.0000 0.0000 0.0000 9.6668 18.9235 -43.8696 -4.6224 -12.9455 39.1649 -0.2322 -5.0688 -12.3829 -0.3714 3.9142 -10.8354 -2.1018 0.1527 36.2414 -1.4357 -0.6042 11.9531 -0.2007 -0.2788 -4.8056 -16.3579 -6.6809 -8.8195 19.1815 -8.2117 1.7445 8.1775 -3.6729 3.5330 -0.0000 -0.0000 0.0000 21.5798 -72.5792 -28.7268 31.9081 -42.4738 -12.6787 -0.0000 0.0000 -2.7142 -0.9233 24.5617 -0.3838 -7.1250 0.0000 -0.0000 -30.5638 51.8166 -5.5630 -0.0000 -0.0000 0.0000 16.1309 32.5484 47.5441 -137.5163 49.4745 -99.6925 0.0000 -0.0000 -28.3442 31.6439 9.4300 5.7656 7.1250 -0.0000 -0.0000 37.3962 -18.0364 31.7030
